<svg xmlns="http://www.w3.org/2000/svg" width="1200" height="675" viewBox="0 0 1200 675">
  <rect width="1200" height="675" fill="#09090b"/>
  <g transform="translate(200,100)">
    <rect x="0" y="0" width="180" height="60" rx="12" fill="#111111" stroke="#27272a" stroke-width="1"/>
    <text x="90" y="36" text-anchor="middle" font-family="monospace" font-size="12" fill="#a1a1aa">Client</text>
  </g>
  <g transform="translate(510,100)">
    <rect x="0" y="0" width="180" height="60" rx="12" fill="#111111" stroke="#38bdf8" stroke-width="1" stroke-opacity="0.3"/>
    <text x="90" y="36" text-anchor="middle" font-family="monospace" font-size="12" fill="#38bdf8" opacity="0.7">API Gateway</text>
  </g>
  <g transform="translate(510,280)">
    <rect x="0" y="0" width="180" height="60" rx="12" fill="#111111" stroke="#27272a" stroke-width="1"/>
    <text x="90" y="36" text-anchor="middle" font-family="monospace" font-size="12" fill="#a1a1aa">Auth Service</text>
  </g>
  <g transform="translate(510,460)">
    <rect x="0" y="0" width="180" height="60" rx="12" fill="#111111" stroke="#27272a" stroke-width="1"/>
    <text x="90" y="36" text-anchor="middle" font-family="monospace" font-size="12" fill="#a1a1aa">Data Layer</text>
  </g>
  <g transform="translate(820,280)">
    <rect x="0" y="0" width="180" height="60" rx="12" fill="#111111" stroke="#27272a" stroke-width="1"/>
    <text x="90" y="36" text-anchor="middle" font-family="monospace" font-size="12" fill="#a1a1aa">AI Engine</text>
  </g>
  <line x1="380" y1="130" x2="510" y2="130" stroke="#27272a" stroke-width="1"/>
  <line x1="600" y1="160" x2="600" y2="280" stroke="#27272a" stroke-width="1"/>
  <line x1="600" y1="340" x2="600" y2="460" stroke="#27272a" stroke-width="1"/>
  <line x1="690" y1="310" x2="820" y2="310" stroke="#27272a" stroke-width="1"/>
</svg>
