<svg xmlns="http://www.w3.org/2000/svg" width="1200" height="675" viewBox="0 0 1200 675">
  <rect width="1200" height="675" fill="#09090b"/>
  <g transform="translate(80,80)">
    <rect x="0" y="0" width="500" height="240" rx="12" fill="#111111" stroke="#27272a" stroke-width="1"/>
    <text x="20" y="30" font-family="monospace" font-size="11" fill="#52525b">System Dashboard</text>
    <rect x="20" y="50" width="460" height="20" rx="4" fill="#1a1a1c"/>
    <rect x="20" y="50" width="180" height="20" rx="4" fill="#38bdf8" opacity="0.15"/>
    <text x="30" y="64" font-family="monospace" font-size="10" fill="#a1a1aa">CPU</text>
    <text x="430" y="64" font-family="monospace" font-size="10" fill="#52525b">39%</text>
    <rect x="20" y="85" width="460" height="20" rx="4" fill="#1a1a1c"/>
    <rect x="20" y="85" width="120" height="20" rx="4" fill="#38bdf8" opacity="0.12"/>
    <text x="30" y="99" font-family="monospace" font-size="10" fill="#a1a1aa">Memory</text>
    <text x="430" y="99" font-family="monospace" font-size="10" fill="#52525b">2.1 / 8 GB</text>
    <rect x="20" y="120" width="460" height="20" rx="4" fill="#1a1a1c"/>
    <rect x="20" y="120" width="300" height="20" rx="4" fill="#38bdf8" opacity="0.1"/>
    <text x="30" y="134" font-family="monospace" font-size="10" fill="#a1a1aa">Disk IO</text>
    <text x="430" y="134" font-family="monospace" font-size="10" fill="#52525b">64%</text>
    <rect x="20" y="160" width="460" height="60" rx="6" fill="#0f0f10" stroke="#27272a" stroke-width="1"/>
    <text x="40" y="184" font-family="monospace" font-size="10" fill="#38bdf8" opacity="0.5">→ 42 requests/s</text>
    <text x="40" y="204" font-family="monospace" font-size="10" fill="#52525b">→ latency p99: 12ms</text>
  </g>
  <g transform="translate(640,80)">
    <rect x="0" y="0" width="480" height="240" rx="12" fill="#111111" stroke="#27272a" stroke-width="1"/>
    <text x="20" y="30" font-family="monospace" font-size="11" fill="#52525b">Service Health</text>
    <circle cx="40" cy="70" r="5" fill="#38bdf8" opacity="0.6"/>
    <text x="55" y="74" font-family="monospace" font-size="11" fill="#a1a1aa">api-gateway</text>
    <text x="430" y="74" font-family="monospace" font-size="10" fill="#38bdf8" opacity="0.5">healthy</text>
    <circle cx="40" cy="105" r="5" fill="#38bdf8" opacity="0.6"/>
    <text x="55" y="109" font-family="monospace" font-size="11" fill="#a1a1aa">ai-engine</text>
    <text x="430" y="109" font-family="monospace" font-size="10" fill="#38bdf8" opacity="0.5">healthy</text>
    <circle cx="40" cy="140" r="5" fill="#52525b"/>
    <text x="55" y="144" font-family="monospace" font-size="11" fill="#52525b">worker-3</text>
    <text x="430" y="144" font-family="monospace" font-size="10" fill="#52525b">idle</text>
    <circle cx="40" cy="175" r="5" fill="#38bdf8" opacity="0.6"/>
    <text x="55" y="179" font-family="monospace" font-size="11" fill="#a1a1aa">postgres</text>
    <text x="430" y="179" font-family="monospace" font-size="10" fill="#38bdf8" opacity="0.5">healthy</text>
  </g>
</svg>
